<svg width="77" height="48" viewBox="0 0 77 48" fill="none" xmlns="http://www.w3.org/2000/svg">
<path d="M1.93182 39V33.3182L12.7841 24.3409C13.5038 23.7443 14.1193 23.1856 14.6307 22.6648C15.1515 22.1345 15.5492 21.59 15.8239 21.0312C16.108 20.4725 16.25 19.8523 16.25 19.1705C16.25 18.4223 16.089 17.7831 15.767 17.2528C15.4545 16.7225 15.0189 16.3153 14.4602 16.0312C13.9015 15.7377 13.2576 15.5909 12.5284 15.5909C11.7992 15.5909 11.1553 15.7377 10.5966 16.0312C10.0473 16.3248 9.62121 16.7557 9.31818 17.3239C9.01515 17.892 8.86364 18.5833 8.86364 19.3977H1.36364C1.36364 17.3523 1.82292 15.5909 2.74148 14.1136C3.66004 12.6364 4.95739 11.5 6.63352 10.7045C8.30966 9.90909 10.2746 9.51136 12.5284 9.51136C14.858 9.51136 16.875 9.88542 18.5795 10.6335C20.2936 11.3722 21.6146 12.4138 22.5426 13.7585C23.4801 15.1032 23.9489 16.6799 23.9489 18.4886C23.9489 19.6061 23.7169 20.7187 23.2528 21.8267C22.7888 22.9252 21.9555 24.142 20.7528 25.4773C19.5502 26.8125 17.8409 28.4034 15.625 30.25L12.8977 32.5227V32.6932H24.2614V39H1.93182Z" fill="#4EA8DE"/>
<path d="M35.7457 39.2841C34.1927 39.2841 32.7628 38.8769 31.456 38.0625C30.1586 37.2481 29.117 36.0123 28.331 34.3551C27.5545 32.6979 27.1662 30.6098 27.1662 28.0909C27.1662 25.4583 27.5734 23.3182 28.3878 21.6705C29.2116 20.0227 30.2723 18.8153 31.5696 18.0483C32.8764 17.2812 34.2495 16.8977 35.6889 16.8977C36.7685 16.8977 37.7154 17.0871 38.5298 17.4659C39.3442 17.8352 40.026 18.3324 40.5753 18.9574C41.1245 19.5729 41.5412 20.25 41.8253 20.9886H41.9389V9.90909H49.7798V39H41.9957V35.4205H41.8253C41.5223 36.1591 41.0866 36.822 40.5185 37.4091C39.9598 37.9867 39.2779 38.446 38.473 38.7869C37.6776 39.1184 36.7685 39.2841 35.7457 39.2841ZM38.6435 33.2614C39.3632 33.2614 39.9787 33.053 40.4901 32.6364C41.0109 32.2102 41.4086 31.6136 41.6832 30.8466C41.9673 30.0701 42.1094 29.1515 42.1094 28.0909C42.1094 27.0114 41.9673 26.0881 41.6832 25.321C41.4086 24.5445 41.0109 23.9527 40.4901 23.5455C39.9787 23.1288 39.3632 22.9205 38.6435 22.9205C37.9238 22.9205 37.3082 23.1288 36.7969 23.5455C36.295 23.9527 35.9067 24.5445 35.6321 25.321C35.367 26.0881 35.2344 27.0114 35.2344 28.0909C35.2344 29.1705 35.367 30.0985 35.6321 30.875C35.9067 31.642 36.295 32.2339 36.7969 32.6506C37.3082 33.0578 37.9238 33.2614 38.6435 33.2614ZM64.1406 39.3977C61.7732 39.3977 59.7467 38.929 58.0611 37.9915C56.3755 37.0445 55.0829 35.7282 54.1832 34.0426C53.2836 32.3475 52.8338 30.3826 52.8338 28.1477C52.8338 25.9129 53.2836 23.9527 54.1832 22.267C55.0829 20.572 56.3755 19.2557 58.0611 18.3182C59.7467 17.3712 61.7732 16.8977 64.1406 16.8977C66.508 16.8977 68.5346 17.3712 70.2202 18.3182C71.9058 19.2557 73.1984 20.572 74.098 22.267C74.9976 23.9527 75.4474 25.9129 75.4474 28.1477C75.4474 30.3826 74.9976 32.3475 74.098 34.0426C73.1984 35.7282 71.9058 37.0445 70.2202 37.9915C68.5346 38.929 66.508 39.3977 64.1406 39.3977ZM64.1974 33.6023C64.8603 33.6023 65.4332 33.3797 65.9162 32.9347C66.3991 32.4896 66.7732 31.8551 67.0384 31.0312C67.3035 30.2074 67.4361 29.2273 67.4361 28.0909C67.4361 26.9451 67.3035 25.965 67.0384 25.1506C66.7732 24.3267 66.3991 23.6922 65.9162 23.2472C65.4332 22.8021 64.8603 22.5795 64.1974 22.5795C63.4967 22.5795 62.8954 22.8021 62.3935 23.2472C61.8916 23.6922 61.508 24.3267 61.2429 25.1506C60.9777 25.965 60.8452 26.9451 60.8452 28.0909C60.8452 29.2273 60.9777 30.2074 61.2429 31.0312C61.508 31.8551 61.8916 32.4896 62.3935 32.9347C62.8954 33.3797 63.4967 33.6023 64.1974 33.6023Z" fill="#5E60CE"/>
</svg>
